<svg width="11" height="14" viewBox="0 0 11 14" fill="none" xmlns="http://www.w3.org/2000/svg">
<path d="M2.92176 13.5C2.6412 13.4993 2.38058 13.3549 2.23104 13.1175C2.08172 12.8798 2.06417 12.5825 2.1848 12.3291L3.82245 8.84089L0.948328 8.79172C0.729365 8.7888 0.520639 8.69833 0.368927 8.54041C0.217215 8.38249 0.134977 8.17029 0.140825 7.95132C0.146674 7.73236 0.239889 7.52491 0.399818 7.37524L7.50722 0.726379C7.69384 0.548357 7.95356 0.468669 8.208 0.511253C8.46242 0.554022 8.68175 0.714129 8.80017 0.94333C8.91843 1.17253 8.92172 1.44412 8.80913 1.67625L7.08155 5.36096L10.1194 5.66401C10.3331 5.68466 10.5299 5.78829 10.668 5.95279C10.806 6.1171 10.8738 6.3293 10.857 6.54314C10.8401 6.75716 10.7398 6.95602 10.5779 7.09694L3.4625 13.2952C3.31317 13.4268 3.12081 13.4998 2.92176 13.5ZM3.05281 7.18662H5.17352C5.45261 7.19027 5.71067 7.33576 5.8582 7.57282C6.00569 7.80969 6.02233 8.10562 5.90225 8.35763L5.36196 9.45481L8.08056 7.07198L5.76337 6.84278C5.49744 6.81591 5.26127 6.6611 5.13078 6.42788C5.00027 6.19466 4.99187 5.91245 5.10811 5.67176L5.48481 4.85293L3.05281 7.18662Z" fill="#1489FF"/>
<path d="M3.05281 7.18662H5.17352C5.45261 7.19027 5.71067 7.33576 5.8582 7.57282C6.00569 7.80969 6.02233 8.10562 5.90225 8.35763L5.36196 9.45481L8.08056 7.07198L5.76337 6.84278C5.49744 6.81591 5.26127 6.6611 5.13078 6.42788C5.00027 6.19466 4.99187 5.91245 5.10811 5.67176L5.48481 4.85293L3.05281 7.18662Z" fill="#1489FF"/>
</svg>
