<svg width="18" height="18" viewBox="0 0 18 18" fill="none" xmlns="http://www.w3.org/2000/svg">
<circle cx="9" cy="9" r="9" fill="#1489FF"/>
<path d="M6.72635 6.79467L6.49902 6.02397C6.95368 5.78001 7.40834 5.5379 7.86299 5.29763C8.32135 5.05737 8.7797 4.81525 9.23806 4.57129L9.21033 5.45288C8.79634 5.67836 8.38234 5.90199 7.96834 6.12378C7.55804 6.34556 7.14405 6.56919 6.72635 6.79467ZM8.76122 12.2062C8.76122 11.7959 8.76122 11.4022 8.76122 11.0252C8.76122 10.6482 8.76122 10.2323 8.76122 9.77767V7.39349C8.76122 6.99798 8.76122 6.60246 8.76122 6.20695C8.76122 5.81143 8.76122 5.41407 8.76122 5.01486L9.23806 4.57129L9.69826 4.60456C9.69826 5.01855 9.69826 5.44549 9.69826 5.88536C9.69826 6.32523 9.69826 6.77804 9.69826 7.24379V9.77767C9.69826 10.2323 9.69826 10.6482 9.69826 11.0252C9.69826 11.4022 9.69826 11.7959 9.69826 12.2062H8.76122Z" fill="white"/>
</svg>
