<svg width="12" height="14" viewBox="0 0 12 14" fill="none" xmlns="http://www.w3.org/2000/svg">
<path fill-rule="evenodd" clip-rule="evenodd" d="M6.00009 0.5C7.66776 0.5 9.01851 1.81626 9.01851 3.44118C9.01851 5.0661 7.66768 6.38237 6.00009 6.38237C4.33249 6.38237 2.98166 5.0661 2.98166 3.44118C2.98166 1.81626 4.33249 0.5 6.00009 0.5ZM6.08347 13.5C8.49927 13.4721 10.6337 12.3138 11.9583 10.5402L11.6105 9.11483C11.4986 8.35343 10.9911 7.845 10.1549 7.54788L7.97738 6.93736C6.75522 7.59431 5.24484 7.59431 4.0226 6.93736L1.84504 7.54788C1.00885 7.845 0.501309 8.35343 0.389432 9.11483L0.0416565 10.5402C1.36621 12.3139 3.5009 13.4745 5.91651 13.5H6.08347Z" fill="#3A3A3A"/>
</svg>
